<svg width="16" height="16" viewBox="0 0 16 16" fill="none" xmlns="http://www.w3.org/2000/svg">
<path d="M15 0C15.5531 0 16 0.447812 16 1C16 1.55219 15.5531 2 15 2V14C15.5531 14 16 14.4469 16 15C16 15.5531 15.5531 16 15 16H9.5V14H6.5V16H1C0.447812 16 0 15.5531 0 15C0 14.4469 0.447812 14 1 14V2C0.447812 2 0 1.55219 0 1C0 0.447812 0.447812 0 1 0H15ZM3.5 3C3.225 3 3 3.225 3 3.5V4.5C3 4.775 3.225 5 3.5 5H4.5C4.775 5 5 4.775 5 4.5V3.5C5 3.225 4.775 3 4.5 3H3.5ZM7 4.5C7 4.775 7.225 5 7.5 5H8.5C8.775 5 9 4.775 9 4.5V3.5C9 3.225 8.775 3 8.5 3H7.5C7.225 3 7 3.225 7 3.5V4.5ZM11.5 3C11.225 3 11 3.225 11 3.5V4.5C11 4.775 11.225 5 11.5 5H12.5C12.775 5 13 4.775 13 4.5V3.5C13 3.225 12.775 3 12.5 3H11.5ZM3 7.5C3 7.775 3.225 8 3.5 8H4.5C4.775 8 5 7.775 5 7.5V6.5C5 6.225 4.775 6 4.5 6H3.5C3.225 6 3 6.225 3 6.5V7.5ZM7.5 6C7.225 6 7 6.225 7 6.5V7.5C7 7.775 7.225 8 7.5 8H8.5C8.775 8 9 7.775 9 7.5V6.5C9 6.225 8.775 6 8.5 6H7.5ZM11 7.5C11 7.775 11.225 8 11.5 8H12.5C12.775 8 13 7.775 13 7.5V6.5C13 6.225 12.775 6 12.5 6H11.5C11.225 6 11 6.225 11 6.5V7.5ZM8 9C6.6 9 5.42188 9.95938 5.06563 11.2563C4.99063 11.6594 5.33437 12 5.75 12H10.25C10.6656 12 11.0094 11.6594 10.9062 11.2563C10.5781 9.95938 9.4 9 8 9Z" fill="#4B5563"/>
</svg>
