<svg width="150" height="27" viewBox="0 0 150 27" fill="none" xmlns="http://www.w3.org/2000/svg">
<g clip-path="url(#clip0_244_1711)">
<path fill-rule="evenodd" clip-rule="evenodd" d="M30.2563 6.20168C30.2408 6.1402 30.1723 6.13929 30.1176 6.14472C30.0387 6.15023 29.9605 6.16263 29.8839 6.18179C29.425 6.30234 28.9662 6.42561 28.5074 6.55159C27.2556 6.89336 26.0044 7.23634 24.7538 7.58052C24.0473 7.77582 23.3408 7.97293 22.6379 8.16642C22.543 8.19405 22.4459 8.21371 22.3477 8.22519C22.2998 8.2346 22.2504 8.23262 22.2035 8.2194C22.1566 8.20619 22.1136 8.18212 22.0779 8.14918C22.0422 8.11624 22.015 8.07537 21.9984 8.02995C21.9818 7.98453 21.9764 7.93585 21.9825 7.88794C21.9883 7.79621 22.0036 7.70532 22.0282 7.61669C22.1718 7.09529 22.3166 6.5748 22.4627 6.05521C22.6982 5.21796 22.9343 4.38131 23.171 3.54526C23.3737 2.82615 23.5748 2.10735 23.7744 1.38884C23.8766 1.01904 23.9725 0.648335 24.0701 0.278534C24.0813 0.235697 24.0871 0.191669 24.0875 0.147431C24.0875 0.012711 24.0072 -0.0334011 23.8949 0.0362191C23.8156 0.0882664 23.7424 0.148919 23.6767 0.217051C23.21 0.6842 22.7444 1.15316 22.2801 1.62392C21.7495 2.16039 21.2185 2.69626 20.6872 3.23152L19.1236 4.80023L17.5608 6.37618C17.0618 6.8807 16.5622 7.38522 16.062 7.88975C15.7069 8.24598 15.3491 8.59951 14.9922 8.95394C14.9559 8.99453 14.9152 9.03093 14.8707 9.06244C14.6827 9.17727 14.5275 9.19535 14.3897 9.00638C14.3158 8.89619 14.2502 8.78075 14.1934 8.66099C13.805 7.8698 13.1227 7.25809 12.2893 6.95394C11.8581 6.79361 11.3991 6.71969 10.9388 6.73645C10.4786 6.75322 10.0263 6.86034 9.60816 7.05161C9.19003 7.24288 8.81441 7.51448 8.50309 7.85066C8.19176 8.18684 7.95093 8.58091 7.79457 9.01C7.75988 9.10041 7.72519 9.19083 7.69142 9.28667C7.65529 9.40269 7.58146 9.50362 7.48141 9.57377C7.38137 9.64392 7.26073 9.67935 7.13825 9.67455C6.83154 9.6854 6.52484 9.69625 6.21813 9.69987C5.24689 9.71072 4.27565 9.71615 3.30441 9.727C2.58693 9.73513 1.86854 9.74779 1.15015 9.76135C0.843445 9.76768 0.536738 9.78215 0.230031 9.79481C0.186296 9.79286 0.142708 9.80108 0.102762 9.81883C0.0628149 9.83657 0.0276205 9.86333 0 9.89698C0.0692517 9.92568 0.140671 9.94896 0.2136 9.9666C0.493835 10.0046 0.773158 10.0398 1.05339 10.0697C1.50737 10.1167 1.96074 10.1613 2.4135 10.2035C2.80783 10.2388 3.20308 10.2659 3.60016 10.3002C4.10769 10.3445 4.61522 10.3906 5.12366 10.4368C5.65127 10.482 6.17979 10.5199 6.7074 10.5642C6.87536 10.5787 7.04271 10.5983 7.20945 10.623C7.31607 10.6361 7.41663 10.6793 7.49917 10.7475C7.58171 10.8156 7.64274 10.9058 7.67499 11.0073C7.69416 11.0579 7.71059 11.1095 7.72793 11.1601C7.93179 11.8158 8.32303 12.399 8.85435 12.8391C9.27374 13.1801 9.76804 13.4188 10.2975 13.5362C10.4664 13.5742 10.6371 13.6058 10.8032 13.6547C10.8756 13.6743 10.9408 13.7139 10.9913 13.7688C11.0419 13.8237 11.0757 13.8916 11.0889 13.9648C11.1047 14.0317 11.1151 14.0997 11.12 14.1682C11.1318 14.3988 11.1419 14.6284 11.1474 14.859C11.1671 15.4354 11.3116 16.0009 11.5709 16.5172C11.9555 17.3109 12.5747 17.97 13.3463 18.4069C14.1743 18.8906 15.0049 19.3689 15.8338 19.8536C16.397 20.1827 16.9584 20.5154 17.5216 20.8482L20.6845 22.6944L22.9665 24.0281C24.0157 24.6363 25.0654 25.2466 26.1158 25.859C26.5092 26.0869 26.9054 26.3111 27.3024 26.5335C27.3452 26.5577 27.3923 26.5733 27.4412 26.5796C27.5626 26.595 27.6101 26.5398 27.5781 26.4259C27.564 26.3737 27.5438 26.3234 27.5179 26.2758C27.4134 26.0866 27.3063 25.8988 27.1965 25.7125C26.843 25.1158 26.4882 24.5199 26.1322 23.925L25.0596 22.1257C24.7018 21.523 24.3443 20.9229 23.9871 20.3255L22.9118 18.5254C22.4462 17.7418 21.981 16.9597 21.5161 16.1791C21.4248 16.0308 21.3399 15.8825 21.2568 15.7324C21.1912 15.6323 21.1617 15.5132 21.173 15.3944C21.1842 15.2756 21.2356 15.1641 21.3189 15.0778C21.381 15.0082 21.4403 14.9359 21.5079 14.8708C21.6986 14.6854 21.8949 14.5046 22.0857 14.3192C22.6133 13.8081 23.1406 13.2957 23.6676 12.7821C24.1696 12.2951 24.672 11.8072 25.1747 11.3183C25.9968 10.516 26.8183 9.71343 27.6393 8.91054C27.8656 8.68993 28.0957 8.47654 28.323 8.25503C28.9254 7.66431 29.5258 7.07178 30.124 6.47745C30.1644 6.44119 30.1984 6.39839 30.2244 6.35087C30.2507 6.30572 30.2618 6.2535 30.2563 6.20168ZM10.1597 10.1393C10.0413 10.1206 9.92514 10.0903 9.81281 10.0489C9.72681 10.0031 9.65275 9.93805 9.59647 9.859C9.53258 9.77763 9.57913 9.71886 9.67954 9.71434C9.76663 9.71485 9.85362 9.7085 9.93969 9.69535C10.0381 9.67544 10.1264 9.62186 10.1889 9.54401C10.2515 9.46615 10.2845 9.36898 10.282 9.26949C10.2789 9.17155 10.2424 9.07754 10.1784 9.00282C10.1144 8.92809 10.0267 8.87708 9.92965 8.8581C9.84541 8.84842 9.7607 8.84329 9.67589 8.84273C9.57548 8.8373 9.53805 8.77492 9.59282 8.68812C9.60513 8.66351 9.6208 8.64069 9.63938 8.62031C9.72406 8.54239 9.82585 8.48502 9.93673 8.4527C10.0476 8.42037 10.1646 8.41399 10.2783 8.43405C10.4861 8.46399 10.6756 8.5681 10.8113 8.7268C10.947 8.88549 11.0194 9.08782 11.015 9.29571C11.0043 9.51664 10.9106 9.72563 10.7524 9.88169C10.5942 10.0378 10.3828 10.1296 10.1597 10.1393Z" fill="#06746D"/>
<path d="M38.8861 7.89062C40.1641 6.46024 41.9471 5.74505 44.2352 5.74505C45.6916 5.73945 47.1443 5.89104 48.5675 6.19713V11.0959H48.5237L45.808 6.54704C45.7414 6.42633 45.6477 6.32239 45.5342 6.24324C45.3985 6.18485 45.2543 6.14822 45.107 6.13474C44.9609 6.12028 44.7501 6.11304 44.468 6.11304C41.7843 6.11304 40.4425 8.60551 40.4425 13.5904C40.4425 18.5603 41.8135 21.0452 44.5556 21.0452C44.7385 21.0491 44.9213 21.0422 45.1033 21.0244C45.2376 21.0195 45.3688 20.9836 45.4865 20.9195C45.6043 20.8555 45.7053 20.7651 45.7816 20.6555L48.52 15.9539H48.562V21.0461C47.2083 21.302 45.8324 21.4253 44.4543 21.4141C41.9459 21.4141 40.0716 20.7209 38.8313 19.3346C37.5911 17.9482 36.9713 16.0495 36.9719 13.6384C36.9701 11.2369 37.6082 9.321 38.8861 7.89062ZM60.3374 19.5724C60.3318 19.6666 60.3488 19.7608 60.3869 19.8474C60.4249 19.9339 60.483 20.0104 60.5564 20.0705L61.8472 21.1555V21.1989H57.5569V18.7939C56.9447 20.5124 55.8655 21.3719 54.3192 21.3725C52.2337 21.3725 51.1906 19.906 51.19 16.9729C51.19 16.1061 51.2046 14.5169 51.2338 12.2053C51.238 12.108 51.2205 12.011 51.1827 11.9212C51.1448 11.8314 51.0875 11.7509 51.0147 11.6854L49.703 10.6212V10.5787H53.9933C53.9933 10.5932 53.9896 11.041 53.9823 11.9223C53.975 12.8035 53.9677 13.7137 53.9604 14.6528C53.9531 15.5919 53.9495 16.1483 53.9495 16.3219C53.9495 17.5208 54.0806 18.4129 54.3429 18.9982C54.6052 19.5835 55.0503 19.8762 55.6783 19.8762C56.4086 19.8762 57.0357 19.4355 57.5597 18.5543V12.2062C57.5654 12.1119 57.5486 12.0176 57.5105 11.931C57.4724 11.8444 57.4142 11.768 57.3406 11.708L56.0499 10.623V10.5787H60.3401L60.3374 19.5724ZM66.0252 12.7487C66.7402 11.1881 67.8487 10.4078 69.3506 10.4078C70.5616 10.4078 71.517 10.8882 72.2168 11.849C72.9166 12.8098 73.2669 14.0922 73.2675 15.6962C73.2675 17.3581 72.8555 18.7197 72.0315 19.7812C71.2075 20.8427 70.1024 21.3737 68.7161 21.3743C67.4327 21.3743 66.5199 20.9482 65.9777 20.0959L63.3086 21.3743H63.2648V7.43583C63.2698 7.33933 63.2504 7.24313 63.2083 7.15596C63.1662 7.06879 63.1028 6.99343 63.0238 6.93673L61.7331 6.00545V5.96205L66.0233 5.46295L66.0252 12.7487ZM66.0252 12.9874V19.859C66.4189 20.293 66.9587 20.5097 67.6445 20.5091C69.4385 20.5091 70.3355 18.9777 70.3355 15.915C70.3355 14.5425 70.1313 13.5094 69.723 12.8156C69.3146 12.1218 68.753 11.7749 68.0379 11.7749C67.2505 11.7713 66.5795 12.1742 66.0252 12.9837V12.9874ZM80.466 13.547V13.4566C80.466 12.6326 80.2983 11.9789 79.963 11.4955C79.6277 11.0121 79.1244 10.771 78.4532 10.7722C78.3021 10.7624 78.1504 10.777 78.0041 10.8156C77.9125 10.8729 77.8403 10.956 77.7969 11.0543L76.2652 14.1094H76.2204L75.0611 11.1619C76.3353 10.6608 77.6938 10.4034 79.0648 10.4033C80.4943 10.4033 81.5154 10.6995 82.1282 11.2921C82.8146 12.0003 83.1579 13.1637 83.1579 14.7821V15.1727L83.0264 18.6185C82.9826 19.5293 83.2233 19.9844 83.7485 19.9837C84.0698 19.9837 84.2888 19.8105 84.4057 19.4639H84.4486C84.4584 19.7181 84.4061 19.9708 84.2961 20.2007C84.1504 20.5468 83.9026 20.8411 83.5851 21.0452C83.2366 21.268 82.8285 21.3815 82.4139 21.3707C81.8309 21.3707 81.3532 21.183 80.9808 20.8074C80.6084 20.4319 80.4151 19.8828 80.4011 19.1601C80.2076 19.8028 79.8132 20.3682 79.2747 20.7749C78.7424 21.1718 78.0916 21.3815 77.4254 21.3707C76.6081 21.3707 75.9189 21.1106 75.3578 20.5904C74.7967 20.0702 74.5156 19.3551 74.5144 18.4449C74.5144 17.4334 74.8755 16.6423 75.5979 16.0715C76.3136 15.5031 77.2074 15.2005 78.1246 15.2161C79.0727 15.2161 79.8386 15.4328 80.4221 15.8662L80.466 13.547ZM77.7969 16.4946C77.4171 16.928 77.2273 17.4705 77.2273 18.1221C77.2273 18.7001 77.3697 19.1552 77.6545 19.4874C77.7851 19.6459 77.9505 19.7729 78.1381 19.8586C78.3257 19.9443 78.5305 19.9865 78.7371 19.9819C79.4065 19.9819 79.9542 19.6423 80.3802 18.963L80.424 16.0163C80.0801 15.8943 79.7166 15.8355 79.3514 15.8427C78.6942 15.8439 78.176 16.0612 77.7969 16.4946ZM96.2632 5.96205C97.9671 5.96205 99.2871 6.26886 100.223 6.88248C101.159 7.4961 101.626 8.39665 101.623 9.58411C101.634 10.0459 101.538 10.504 101.344 10.9239C101.149 11.3438 100.861 11.7146 100.501 12.0082C99.7499 12.6441 98.7762 13.0199 97.5804 13.1356V13.2007C98.9515 13.2574 100.064 13.6149 100.917 14.2731C101.77 14.9313 102.196 15.8017 102.195 16.8843C102.195 18.2423 101.684 19.3008 100.663 20.0597C99.6419 20.8186 98.2708 21.1977 96.5498 21.1971H89.3057V21.1573L90.9899 19.9819C91.067 19.9287 91.1294 19.8573 91.1715 19.774C91.2136 19.6908 91.234 19.5985 91.2308 19.5054V7.65192C91.2341 7.55888 91.2137 7.46651 91.1716 7.38327C91.1295 7.30003 91.067 7.22857 90.9899 7.17543L89.3057 6.00545V5.96205H96.2632ZM94.2724 13.0922H95.4754C96.3797 13.0922 97.0945 12.7996 97.6197 12.2143C98.1448 11.629 98.4074 10.7731 98.4074 9.6465C98.4074 8.57658 98.1558 7.76283 97.6525 7.20527C97.1493 6.6477 96.4528 6.36952 95.5631 6.37073H94.6658C94.5051 6.37073 94.4001 6.39966 94.349 6.46114C94.2979 6.52263 94.2724 6.64198 94.2724 6.82914V13.0922ZM94.2724 13.4819V20.3083C94.2724 20.5253 94.3089 20.6592 94.3819 20.7098C94.4549 20.7604 94.6375 20.7857 94.9296 20.7857H95.5202C97.7955 20.7857 98.9332 19.5576 98.9332 17.1013C98.9332 15.9024 98.6594 14.9982 98.1117 14.3888C97.564 13.7794 96.6926 13.4759 95.4974 13.4783L94.2724 13.4819ZM113.614 19.5724C113.608 19.6665 113.624 19.7608 113.661 19.8476C113.699 19.9345 113.756 20.0114 113.829 20.0724L115.12 21.1573V21.2007H110.83V18.7957C110.217 20.5142 109.137 21.3737 107.591 21.3743C105.506 21.3743 104.463 19.9078 104.462 16.9747C104.462 16.1079 104.477 14.5187 104.506 12.2071C104.51 12.1099 104.493 12.013 104.455 11.9232C104.417 11.8334 104.36 11.7528 104.288 11.6872L102.974 10.6248V10.5787H107.265C107.265 10.5932 107.261 11.041 107.254 11.9223C107.246 12.8035 107.239 13.7137 107.232 14.6528C107.224 15.5919 107.221 16.1483 107.222 16.3219C107.222 17.5208 107.353 18.4129 107.615 18.9982C107.877 19.5835 108.322 19.8762 108.95 19.8762C109.68 19.8762 110.307 19.4355 110.832 18.5543V12.2062C110.838 12.1119 110.821 12.0176 110.783 11.931C110.745 11.8444 110.686 11.768 110.613 11.708L109.322 10.623V10.5787H113.612L113.614 19.5724ZM125.822 19.5724C125.817 19.6666 125.834 19.7608 125.872 19.8474C125.91 19.9339 125.968 20.0104 126.041 20.0705L127.354 21.1555V21.1989H123.064V19.0778C122.451 20.6094 121.393 21.3753 119.892 21.3753C118.681 21.3753 117.696 20.884 116.938 19.9015C116.179 18.919 115.8 17.6043 115.8 15.9575C115.8 14.2957 116.223 12.9554 117.069 11.9367C117.915 10.918 118.972 10.4087 120.241 10.4087C121.554 10.4087 122.495 11.0157 123.064 12.2297V7.43764C123.069 7.34334 123.052 7.24907 123.014 7.16239C122.977 7.07571 122.919 6.99904 122.845 6.93854L121.554 6.00726V5.96386L125.82 5.46476L125.822 19.5724ZM123.065 18.8789V12.4413C122.585 11.7782 121.987 11.4467 121.272 11.4467C120.541 11.4467 119.94 11.8008 119.466 12.5091C118.993 13.2173 118.757 14.3002 118.758 15.7577C118.758 17.2044 118.988 18.2806 119.447 18.9865C119.906 19.6923 120.494 20.0464 121.209 20.0488C121.878 20.0488 122.497 19.6589 123.065 18.8789ZM138.032 19.5724C138.027 19.6665 138.043 19.7606 138.081 19.8472C138.119 19.9337 138.177 20.0102 138.25 20.0705L139.564 21.1555V21.1989H135.273V19.0778C134.66 20.6094 133.602 21.3753 132.101 21.3753C130.89 21.3753 129.905 20.884 129.147 19.9015C128.388 18.919 128.009 17.6043 128.009 15.9575C128.009 14.2957 128.432 12.9554 129.278 11.9367C130.124 10.918 131.181 10.4087 132.45 10.4087C133.764 10.4087 134.705 11.0157 135.273 12.2297V7.43764C135.279 7.34325 135.262 7.24888 135.224 7.16217C135.186 7.07547 135.128 6.99885 135.054 6.93854L133.764 6.00726V5.96386L138.03 5.46476L138.032 19.5724ZM135.28 18.8789V12.4413C134.798 11.7782 134.2 11.4467 133.485 11.4467C132.755 11.4467 132.153 11.8008 131.68 12.5091C131.206 13.2173 130.969 14.3008 130.969 15.7595C130.969 17.2062 131.199 18.2824 131.659 18.9883C132.119 19.6941 132.706 20.0482 133.42 20.0507C134.088 20.0495 134.708 19.6589 135.28 18.8789ZM139.87 26.095L140.657 22.5841H140.701L142.364 24.7297C142.466 24.8743 142.561 24.9467 142.649 24.9467C142.721 24.9467 142.809 24.8743 142.911 24.7297C143.305 24.1956 143.765 23.3361 144.289 22.151L140.352 12.2053C140.242 11.9486 140.11 11.702 139.957 11.4684L139.409 10.623V10.5787H144.332V10.6221L143.369 11.6845C143.305 11.7537 143.265 11.841 143.253 11.9342C143.241 12.0273 143.259 12.1218 143.304 12.2044L145.733 18.6194L147.811 13.3752C147.863 13.2652 147.886 13.1441 147.878 13.023C147.87 12.9019 147.832 12.7846 147.767 12.6818L146.455 10.623V10.5787H149.999V10.6221L148.686 12.529C148.497 12.8165 148.336 13.1214 148.205 13.4394L144.919 21.783C144.526 22.7816 144.035 23.7397 143.453 24.6438C142.756 25.7553 141.89 26.3111 140.854 26.3111C140.514 26.3103 140.178 26.2366 139.87 26.095Z" fill="#172B4D"/>
</g>
<defs>
<clipPath id="clip0_244_1711">
<rect width="150" height="26.5823" fill="white"/>
</clipPath>
</defs>
</svg>
