<svg width="50" height="50" viewBox="0 0 50 50" fill="none" xmlns="http://www.w3.org/2000/svg">
    <path fill-rule="evenodd" clip-rule="evenodd" d="M13.6656 0.0572512C7.38655 0.512046 2.69418 1.85033 0.831367 3.71762C-0.0952752 4.6466 -0.223554 5.49865 0.417315 6.46725C1.72816 8.44805 6.56222 9.99765 13.1393 10.5453C15.0907 10.7079 20.7298 10.6158 22.6189 10.3906C28.2901 9.71464 32.3929 8.23695 33.5789 6.44304C34.1054 5.64675 34.0082 4.65163 33.3286 3.88124C31.7874 2.13428 27.2795 0.695368 21.6765 0.162276C20.0544 0.00798775 15.221 -0.0554256 13.6656 0.0572512ZM1.74102e-05 12.4459C1.74102e-05 16.9015 -0.0107686 16.8414 0.934513 17.6892C4.73271 21.0958 17.2293 22.4769 26.2876 20.4909C29.3103 19.8282 31.8092 18.7914 32.965 17.7204C33.9695 16.7894 33.9284 17.0128 33.9284 12.4944V8.56052L33.3786 8.93545C30.9228 10.61 26.2511 11.8817 20.9434 12.3207C18.9073 12.4891 14.5075 12.4622 12.5137 12.2692C7.41137 11.7752 3.18991 10.6161 0.757855 9.04131L1.74102e-05 8.55056V12.4459ZM3.59611 13.8768C4.3839 14.2343 4.62066 14.612 4.39646 15.1537C4.14692 15.7568 3.53432 15.8355 2.61795 15.3822C1.73843 14.9472 1.54198 14.3247 2.11541 13.7901C2.42621 13.5002 2.8167 13.523 3.59611 13.8768ZM7.84438 15.1575C8.56159 15.3115 8.90097 15.5948 8.90097 16.0397C8.90097 16.5379 8.81343 16.7077 8.46284 16.8892C8.2046 17.0228 8.05873 17.0288 7.55934 16.9257C6.85134 16.7797 6.43729 16.583 6.34807 16.3504C6.20828 15.9858 6.28713 15.5554 6.54013 15.3023C6.82454 15.0175 7.06685 14.9906 7.84438 15.1575ZM0.00232112 23.1421C0.00493905 27.5676 -0.00542802 27.5047 0.851682 28.3197C2.82487 30.1959 7.55756 31.5822 13.5308 32.0334C16.424 32.252 21.5879 32.0535 24.0897 31.6276C24.5412 31.5508 24.57 31.5225 24.9866 30.7461C25.9425 28.9648 27.5787 27.0982 29.1901 25.9509C30.2849 25.1714 32.011 24.291 33.1168 23.9482L33.9284 23.6965V21.5194C33.9284 20.3221 33.9095 19.3424 33.8865 19.3424C33.8635 19.3424 33.5925 19.5125 33.2844 19.7204C30.9958 21.265 26.9675 22.4154 21.8859 22.9756C19.8694 23.1979 14.5193 23.2283 12.5661 23.0285C7.1523 22.4748 2.80078 21.236 0.497424 19.5928L1.74102e-05 19.2379L0.00232112 23.1421ZM35.6038 25.1625C32.2065 25.6957 29.067 27.7028 27.1729 30.5525C24.3382 34.8171 24.3213 40.1293 27.1289 44.4495C27.759 45.4189 29.5068 47.2074 30.4321 47.8294C31.8198 48.7622 33.4269 49.443 35.1016 49.8072C36.2928 50.0663 38.7674 50.0638 40.002 49.8022C44.9606 48.7512 48.734 44.9672 49.8068 39.9697C50.0661 38.762 50.064 36.285 49.8027 35.0647C48.8366 30.5525 45.5897 26.9496 41.259 25.5845C39.492 25.0275 37.4396 24.8742 35.6038 25.1625ZM1.74102e-05 33.9248C1.74102e-05 38.4509 -0.017261 38.3623 1.03682 39.2404C4.24776 41.915 13.0175 43.4349 21.0482 42.7085C23.4165 42.4944 24.0985 42.3778 24.0268 42.1997C23.851 41.7623 23.4523 40.0047 23.3424 39.1828C23.193 38.0644 23.278 35.8379 23.5097 34.8027C23.8465 33.2979 23.8603 33.4503 23.3945 33.5276C23.1695 33.5649 22.1137 33.6721 21.0482 33.7658C18.6869 33.9735 13.8264 33.9171 11.6236 33.6565C6.81166 33.0873 2.86801 31.9342 0.680679 30.4569C0.450301 30.3014 0.202959 30.1396 0.130914 30.0976C0.0271391 30.037 1.74102e-05 30.831 1.74102e-05 33.9248ZM35.0717 33.7503L37.542 36.2092L40.0111 33.7503C42.3441 31.4268 42.5016 31.2913 42.8689 31.2913C43.3752 31.2913 43.7718 31.6668 43.7718 32.1463C43.7718 32.4506 43.5086 32.751 41.2886 34.9801L38.8055 37.4735L41.2886 39.9729C43.6345 42.3342 43.7718 42.4939 43.7718 42.8611C43.7718 43.1341 43.6952 43.3265 43.5147 43.5071C43.3343 43.6878 43.1421 43.7644 42.8693 43.7644C42.5025 43.7644 42.3429 43.627 39.9838 41.2789L37.4868 38.7934L34.9957 41.2789C32.7687 43.501 32.4686 43.7644 32.1646 43.7644C31.6855 43.7644 31.3104 43.3675 31.3104 42.8607C31.3104 42.493 31.4457 42.3353 33.7671 40.0002L36.2237 37.5288L33.7671 35.0561C31.4471 32.7208 31.3104 32.5617 31.3104 32.1947C31.3104 31.9216 31.387 31.7293 31.5675 31.5487C31.7479 31.368 31.9401 31.2913 32.2129 31.2913C32.5796 31.2913 32.7386 31.4281 35.0717 33.7503Z" fill="#929EB6"/>
</svg>
